HIERARCHY
ROOT Root
{
  OFFSET 0.0 0.0 0.0
  CHANNELS 6 Xposition Yposition Zposition Zrotation Yrotation Xrotation
  JOINT Hips
  {
    OFFSET 0.0 100.0 0.0
    CHANNELS 6 Xposition Yposition Zposition Zrotation Yrotation Xrotation
    JOINT Spine1
    {
      OFFSET -0.013727 5.003763 -0.053727
      CHANNELS 3 Zrotation Yrotation Xrotation
      JOINT Spine2
      {
        OFFSET -0.0 7.125301 -0.029825
        CHANNELS 3 Zrotation Yrotation Xrotation
        JOINT Chest
        {
          OFFSET -1e-06 7.550063 -0.815971
          CHANNELS 3 Zrotation Yrotation Xrotation
          JOINT Neck1
          {
            OFFSET -0.181677 26.311295 -0.553348
            CHANNELS 3 Zrotation Yrotation Xrotation
            JOINT Neck2
            {
              OFFSET -3e-06 7.709397 2.302585
              CHANNELS 3 Zrotation Yrotation Xrotation
              JOINT Head
              {
                OFFSET -5e-06 6.128916 1.953709
                CHANNELS 3 Zrotation Yrotation Xrotation
                JOINT HeadEnd
                {
                  OFFSET 0.003598 16.065403 -1.835379
                  CHANNELS 3 Zrotation Yrotation Xrotation
                }
                JOINT Jaw
                {
                  OFFSET 0.002637 0.475592 3.094941
                  CHANNELS 3 Zrotation Yrotation Xrotation
                }
                JOINT LeftEye
                {
                  OFFSET 3.206381 5.380205 7.586883
                  CHANNELS 3 Zrotation Yrotation Xrotation
                }
                JOINT RightEye
                {
                  OFFSET -3.22244 5.361869 7.558234
                  CHANNELS 3 Zrotation Yrotation Xrotation
                }
              }
            }
          }
          JOINT LeftShoulder
          {
            OFFSET 1.621652 23.237164 5.113413
            CHANNELS 3 Zrotation Yrotation Xrotation
            JOINT LeftArm
            {
              OFFSET 14.919846 2e-06 -5.502326
              CHANNELS 3 Zrotation Yrotation Xrotation
              JOINT LeftForeArm
              {
                OFFSET 28.739307 0.0 -0.002588
                CHANNELS 3 Zrotation Yrotation Xrotation
                JOINT LeftHand
                {
                  OFFSET 27.093981 -1e-06 0.002609
                  CHANNELS 3 Zrotation Yrotation Xrotation
                  JOINT LeftHandThumb1
                  {
                    OFFSET 2.276482 -1.392045 3.191413
                    CHANNELS 3 Zrotation Yrotation Xrotation
                    JOINT LeftHandThumb2
                    {
                      OFFSET 4.012836 -1.828127 1.641654
                      CHANNELS 3 Zrotation Yrotation Xrotation
                      JOINT LeftHandThumb3
                      {
                        OFFSET 2.798515 0.0 -3e-06
                        CHANNELS 3 Zrotation Yrotation Xrotation
                        JOINT LeftHandThumbEnd
                        {
                          OFFSET 3.180793 -4e-06 4e-06
                          CHANNELS 3 Zrotation Yrotation Xrotation
                        }
                      }
                    }
                  }
                  JOINT LeftHandIndex1
                  {
                    OFFSET 3.247555 -0.531998 2.296169
                    CHANNELS 3 Zrotation Yrotation Xrotation
                    JOINT LeftHandIndex2
                    {
                      OFFSET 6.364578 0.01206 0.1786
                      CHANNELS 3 Zrotation Yrotation Xrotation
                      JOINT LeftHandIndex3
                      {
                        OFFSET 3.662364 0.0 0.0
                        CHANNELS 3 Zrotation Yrotation Xrotation
                        JOINT LeftHandIndex4
                        {
                          OFFSET 2.329242 4e-06 4e-06
                          CHANNELS 3 Zrotation Yrotation Xrotation
                          JOINT LeftHandIndexEnd
                          {
                            OFFSET 2.759615 -0.180537 -0.113024
                            CHANNELS 3 Zrotation Yrotation Xrotation
                          }
                        }
                      }
                    }
                  }
                  JOINT LeftHandMiddle1
                  {
                    OFFSET 3.163495 0.240981 1.000332
                    CHANNELS 3 Zrotation Yrotation Xrotation
                    JOINT LeftHandMiddle2
                    {
                      OFFSET 6.19078 -0.259278 -1.002548
                      CHANNELS 3 Zrotation Yrotation Xrotation
                      JOINT LeftHandMiddle3
                      {
                        OFFSET 4.35652 -4e-06 -1e-06
                        CHANNELS 3 Zrotation Yrotation Xrotation
                        JOINT LeftHandMiddle4
                        {
                          OFFSET 2.996877 -8e-06 0.0
                          CHANNELS 3 Zrotation Yrotation Xrotation
                          JOINT LeftHandMiddleEnd
                          {
                            OFFSET 2.304287 -0.294569 -0.031741
                            CHANNELS 3 Zrotation Yrotation Xrotation
                          }
                        }
                      }
                    }
                  }
                  JOINT LeftHandRing1
                  {
                    OFFSET 2.882643 -0.053652 -0.322543
                    CHANNELS 3 Zrotation Yrotation Xrotation
                    JOINT LeftHandRing2
                    {
                      OFFSET 5.854541 -0.486202 -1.373841
                      CHANNELS 3 Zrotation Yrotation Xrotation
                      JOINT LeftHandRing3
                      {
                        OFFSET 4.350578 0.0 3e-06
                        CHANNELS 3 Zrotation Yrotation Xrotation
                        JOINT LeftHandRing4
                        {
                          OFFSET 2.651321 7e-06 2e-06
                          CHANNELS 3 Zrotation Yrotation Xrotation
                          JOINT LeftHandRingEnd
                          {
                            OFFSET 1.936105 0.077687 -7.1e-05
                            CHANNELS 3 Zrotation Yrotation Xrotation
                          }
                        }
                      }
                    }
                  }
                  JOINT LeftHandPinky1
                  {
                    OFFSET 2.8655 -0.310005 -1.600378
                    CHANNELS 3 Zrotation Yrotation Xrotation
                    JOINT LeftHandPinky2
                    {
                      OFFSET 5.087849 -1.331141 -1.77123
                      CHANNELS 3 Zrotation Yrotation Xrotation
                      JOINT LeftHandPinky3
                      {
                        OFFSET 3.070974 4e-06 0.0
                        CHANNELS 3 Zrotation Yrotation Xrotation
                        JOINT LeftHandPinky4
                        {
                          OFFSET 1.549672 0.0 1e-06
                          CHANNELS 3 Zrotation Yrotation Xrotation
                          JOINT LeftHandPinkyEnd
                          {
                            OFFSET 1.944893 -0.157802 0.057219
                            CHANNELS 3 Zrotation Yrotation Xrotation
                          }
                        }
                      }
                    }
                  }
                }
              }
            }
          }
          JOINT RightShoulder
          {
            OFFSET -1.380118 23.180309 5.214158
            CHANNELS 3 Zrotation Yrotation Xrotation
            JOINT RightArm
            {
              OFFSET -15.037196 1.2e-05 -5.545604
              CHANNELS 3 Zrotation Yrotation Xrotation
              JOINT RightForeArm
              {
                OFFSET -28.736639 2e-06 -0.002597
                CHANNELS 3 Zrotation Yrotation Xrotation
                JOINT RightHand
                {
                  OFFSET -27.133619 -0.0 0.002613
                  CHANNELS 3 Zrotation Yrotation Xrotation
                  JOINT RightHandThumb1
                  {
                    OFFSET -2.274032 -1.383988 3.163127
                    CHANNELS 3 Zrotation Yrotation Xrotation
                    JOINT RightHandThumb2
                    {
                      OFFSET -4.011429 -1.827466 1.640914
                      CHANNELS 3 Zrotation Yrotation Xrotation
                      JOINT RightHandThumb3
                      {
                        OFFSET -2.794935 -4e-06 -3e-06
                        CHANNELS 3 Zrotation Yrotation Xrotation
                        JOINT RightHandThumbEnd
                        {
                          OFFSET -3.183852 4e-06 1e-06
                          CHANNELS 3 Zrotation Yrotation Xrotation
                        }
                      }
                    }
                  }
                  JOINT RightHandIndex1
                  {
                    OFFSET -3.253266 -0.520057 2.282866
                    CHANNELS 3 Zrotation Yrotation Xrotation
                    JOINT RightHandIndex2
                    {
                      OFFSET -6.341917 0.012471 0.178266
                      CHANNELS 3 Zrotation Yrotation Xrotation
                      JOINT RightHandIndex3
                      {
                        OFFSET -3.654871 -8e-06 -0.0
                        CHANNELS 3 Zrotation Yrotation Xrotation
                        JOINT RightHandIndex4
                        {
                          OFFSET -2.327586 0.0 1e-06
                          CHANNELS 3 Zrotation Yrotation Xrotation
                          JOINT RightHandIndexEnd
                          {
                            OFFSET -2.76179 -0.180656 -0.113078
                            CHANNELS 3 Zrotation Yrotation Xrotation
                          }
                        }
                      }
                    }
                  }
                  JOINT RightHandMiddle1
                  {
                    OFFSET -3.168106 0.246593 1.00103
                    CHANNELS 3 Zrotation Yrotation Xrotation
                    JOINT RightHandMiddle2
                    {
                      OFFSET -6.180828 -0.258836 -1.000895
                      CHANNELS 3 Zrotation Yrotation Xrotation
                      JOINT RightHandMiddle3
                      {
                        OFFSET -4.348901 0.0 -0.0
                        CHANNELS 3 Zrotation Yrotation Xrotation
                        JOINT RightHandMiddle4
                        {
                          OFFSET -3.00024 -4e-06 -2e-06
                          CHANNELS 3 Zrotation Yrotation Xrotation
                          JOINT RightHandMiddleEnd
                          {
                            OFFSET -2.30252 -0.29437 -0.031706
                            CHANNELS 3 Zrotation Yrotation Xrotation
                          }
                        }
                      }
                    }
                  }
                  JOINT RightHandRing1
                  {
                    OFFSET -2.88569 -0.067952 -0.308858
                    CHANNELS 3 Zrotation Yrotation Xrotation
                    JOINT RightHandRing2
                    {
                      OFFSET -5.854198 -0.48613 -1.373731
                      CHANNELS 3 Zrotation Yrotation Xrotation
                      JOINT RightHandRing3
                      {
                        OFFSET -4.33881 -4e-06 -0.0
                        CHANNELS 3 Zrotation Yrotation Xrotation
                        JOINT RightHandRing4
                        {
                          OFFSET -2.654903 -4e-06 4e-06
                          CHANNELS 3 Zrotation Yrotation Xrotation
                          JOINT RightHandRingEnd
                          {
                            OFFSET -1.933568 0.077527 -5.2e-05
                            CHANNELS 3 Zrotation Yrotation Xrotation
                          }
                        }
                      }
                    }
                  }
                  JOINT RightHandPinky1
                  {
                    OFFSET -2.866425 -0.342796 -1.584145
                    CHANNELS 3 Zrotation Yrotation Xrotation
                    JOINT RightHandPinky2
                    {
                      OFFSET -5.091371 -1.332055 -1.772385
                      CHANNELS 3 Zrotation Yrotation Xrotation
                      JOINT RightHandPinky3
                      {
                        OFFSET -3.062664 -4e-06 1e-06
                        CHANNELS 3 Zrotation Yrotation Xrotation
                        JOINT RightHandPinky4
                        {
                          OFFSET -1.546529 4e-06 -2e-06
                          CHANNELS 3 Zrotation Yrotation Xrotation
                          JOINT RightHandPinkyEnd
                          {
                            OFFSET -1.945119 -0.157718 0.057211
                            CHANNELS 3 Zrotation Yrotation Xrotation
                          }
                        }
                      }
                    }
                  }
                }
              }
            }
          }
        }
      }
    }
    JOINT LeftLeg
    {
      OFFSET 10.043214 -8.434526 2.595655
      CHANNELS 3 Zrotation Yrotation Xrotation
      JOINT LeftShin
      {
        OFFSET -1e-06 -43.221752 -0.802913
        CHANNELS 3 Zrotation Yrotation Xrotation
        JOINT LeftFoot
        {
          OFFSET 1e-06 -42.155094 -3.481523
          CHANNELS 3 Zrotation Yrotation Xrotation
          JOINT LeftToeBase
          {
            OFFSET 0.0 -5.059472 13.231529
            CHANNELS 3 Zrotation Yrotation Xrotation
            JOINT LeftToeEnd
            {
              OFFSET -0.009607 -1.647619 6.513017
              CHANNELS 3 Zrotation Yrotation Xrotation
            }
          }
        }
      }
    }
    JOINT RightLeg
    {
      OFFSET -10.047278 -8.29526 2.620317
      CHANNELS 3 Zrotation Yrotation Xrotation
      JOINT RightShin
      {
        OFFSET 1e-06 -43.362206 -0.805556
        CHANNELS 3 Zrotation Yrotation Xrotation
        JOINT RightFoot
        {
          OFFSET 2e-06 -42.117393 -3.478398
          CHANNELS 3 Zrotation Yrotation Xrotation
          JOINT RightToeBase
          {
            OFFSET -0.0 -5.079609 13.284196
            CHANNELS 3 Zrotation Yrotation Xrotation
            JOINT RightToeEnd
            {
              OFFSET 0.009532 -1.634378 6.460591
              CHANNELS 3 Zrotation Yrotation Xrotation
            }
          }
        }
      }
    }
  }
}
MOTION
Frames: 4
Frame Time: 0.03333333333333333
0.490966 0.0 0.664029 0.0 5.862211 0.0 0.0 98.938332 0.0 -0.567973 0.00581 0.589933 -0.351702 0.549308 2.602397 -0.531973 0.905807 -4.606292 -2.748556 -1.262207 12.218073 4.385217 1.055982 16.834667 -1.474079 -2.401804 -3.642066 3.281537 -4.204112 -18.895685 7.7e-05 -2.3e-05 6e-06 -0.008955 0.055041 0.078649 0.584901 -3.673803 -10.44718 -0.605384 3.782465 -10.426112 -14.674303 -7.188414 18.763063 -59.014248 -24.212955 19.522118 0.452932 -22.086048 -0.10948 -3.961888 -1.382037 2.532437 -5.882106 9.861285 0.702592 -10.936873 -0.360575 7.156203 1e-06 8.774826 1e-06 -16.481318 18.15206 5.714141 -1.844033 2.498503 -2.507278 -10.163601 4.678945 4.621109 -20.976027 -5e-06 1e-06 -21.226288 2.451693 -3.593997 2e-06 -6e-06 -1e-06 -1.362682 2.240798 -0.746323 -21.334915 0.58491 3.008322 -13.821215 -3e-06 1e-06 -23.887171 -0.249079 -0.839482 -61.022579 2.58687 -1.424031 -0.294024 1.679688 0.833254 -14.218208 0.093213 1.30058 -34.212048 -0.287565 0.967174 -20.033211 0.964536 1.212844 -1e-06 2e-06 1e-06 -3.440388 0.788233 0.501654 -15.928189 -3.16731 2.999708 -6.338827 -2e-06 2e-06 -18.123446 3.64818 -4.905668 -2e-06 1e-06 -0.0 1.169906 13.342426 16.237013 44.048546 7.317894 -47.338131 -179.382965 52.331474 -179.080261 -21.327463 16.21855 -5.801703 2.243541 -5.255037 -3.180161 14.282896 -0.826594 6.952505 -2e-06 -12.690605 -3e-06 15.708343 -17.332401 2.21902 1.665665 -1.955922 -2.8783 4.7278 -4.170588 4.993925 11.020528 4e-06 -0.0 12.109053 -3.735716 -2.866785 0.0 -1e-06 -0.0 1.291986 -1.928548 -1.49809 14.800134 0.56747 3.86561 14.242577 -1.341735 -6.660661 19.631969 0.143925 -0.648244 48.795902 -0.891801 -6.19939 0.353029 -1.511152 -0.031939 20.222795 3.684311 2.316634 18.787273 5e-06 1e-06 10.75163 -0.479868 1.397907 0.0 1e-06 0.0 3.273806 0.305947 -0.580112 21.48682 11.830377 2.266137 8.16293 3e-06 1e-06 18.399084 -3.798985 -4.940573 3e-06 0.0 -1e-06 6.499587 4.498466 -13.451514 -0.091985 -0.173652 19.552101 -9.154385 4.358513 -6.49613 1.637744 -2.067913 0.15349 -0.0 0.0 2e-06 -7.412221 -25.228939 -7.57011 0.056768 0.172823 17.831455 10.337528 -8.066504 -6.684914 -1.455769 1.04883 0.06012 0.0 0.0 -1e-06 
0.640731 0.0 0.685399 0.0 5.792852 0.0 0.0 98.92968 0.0 -0.573452 0.004286 0.444344 -0.470155 0.352923 2.566658 -0.520824 0.997947 -4.507425 -2.589418 -1.43756 12.299775 3.416985 1.378268 16.330858 -1.21543 -2.180606 -3.771801 3.370452 -3.834784 -18.663296 7.7e-05 -2.2e-05 6e-06 0.004038 0.013107 0.073942 0.59664 -3.723407 -10.496015 -0.592283 3.752145 -10.473039 -14.910869 -7.568086 19.221973 -58.789917 -24.496008 20.254456 0.396494 -22.148296 -0.061701 -4.668042 -0.879091 1.479305 -5.882109 9.861288 0.702588 -10.936874 -0.360574 7.156202 -2e-06 8.774827 -2e-06 -16.335476 18.06694 5.791415 -1.844034 2.498506 -2.507276 -10.163603 4.678947 4.621105 -20.976025 1e-06 -1e-06 -21.22629 2.451699 -3.594004 2e-06 -6e-06 -0.0 -1.362682 2.240798 -0.746324 -21.334917 0.584912 3.008319 -13.821214 -1e-06 -2e-06 -23.887171 -0.249077 -0.839489 -60.793629 2.40416 -1.348756 -0.294025 1.679688 0.833255 -14.218212 0.093217 1.300576 -34.212059 -0.287563 0.967162 -20.033215 0.964536 1.212839 -1e-06 -1e-06 -1e-06 -3.440389 0.788234 0.501655 -15.928187 -3.167307 2.999704 -6.338828 1e-06 -1e-06 -18.123455 3.648185 -4.905674 -3e-06 1e-06 -0.0 3.99885 12.343497 17.317327 51.417229 7.549578 -39.308437 178.111298 63.250031 178.250488 -23.103905 8.447404 -9.210989 2.243542 -5.25504 -3.180159 14.282889 -0.826595 6.952507 -2e-06 -12.690607 -2e-06 16.179022 -16.967138 2.310388 1.665665 -1.95592 -2.878299 4.7278 -4.170588 4.993925 11.020526 2e-06 -2e-06 12.109052 -3.735716 -2.866786 -0.0 2e-06 1e-06 1.291986 -1.928548 -1.49809 14.800129 0.567468 3.86561 14.242571 -1.341738 -6.660657 19.631966 0.143926 -0.648243 49.076389 -0.392164 -5.807491 0.353029 -1.511151 -0.031938 20.22279 3.684309 2.316635 18.787273 4e-06 2e-06 10.75163 -0.479871 1.39791 -0.0 2e-06 -1e-06 3.273808 0.305947 -0.58011 21.486818 11.830374 2.266138 8.16293 1e-06 0.0 18.399084 -3.798988 -4.940576 3e-06 -1e-06 -1e-06 6.390816 4.897658 -13.339971 -0.080724 -0.191595 19.674322 -8.991349 4.060216 -6.546206 1.659041 -1.957988 0.21087 -0.0 -0.0 2e-06 -7.543058 -24.720423 -7.357629 0.063226 0.143051 17.663765 10.391156 -8.539681 -6.65306 -1.44046 1.006657 0.067725 0.0 0.0 -1e-06 
0.86678 0.0 0.673475 0.0 5.258365 0.0 0.0 98.930336 0.0 -0.427806 0.001653 0.236801 -0.608281 0.200747 2.514695 -0.530147 0.912915 -4.420449 -2.57718 -1.493418 12.357465 2.899518 1.459834 15.966959 -0.951911 -1.855298 -3.869528 3.344653 -3.389557 -18.33264 7.7e-05 -2.2e-05 6e-06 0.01135 -0.049796 0.042242 0.619333 -3.784196 -10.54644 -0.601778 3.692979 -10.541755 -15.145791 -8.033027 19.844559 -58.421909 -24.717026 21.204103 0.40867 -21.586842 -0.024232 -5.332698 -0.395921 0.710162 -5.882109 9.861288 0.702591 -10.936877 -0.360577 7.156203 1e-06 8.774828 -2e-06 -16.136927 17.955126 5.744466 -1.844034 2.498506 -2.507279 -10.163604 4.678946 4.621109 -20.976038 -8e-06 -0.0 -21.226301 2.451695 -3.593999 1e-06 -4e-06 -0.0 -1.362682 2.240798 -0.746324 -21.334927 0.584906 3.008322 -13.82122 -5e-06 1e-06 -23.887184 -0.249085 -0.839483 -60.3778 2.321912 -1.572279 -0.294024 1.679688 0.833256 -14.218217 0.093213 1.30058 -34.212067 -0.28757 0.96717 -20.033226 0.964531 1.212844 1e-06 1e-06 0.0 -3.44039 0.788233 0.501654 -15.928198 -3.167315 2.999707 -6.338829 -2e-06 -1e-06 -18.123459 3.64818 -4.905672 -5e-06 0.0 1e-06 5.316181 11.389551 18.097248 55.796074 8.109041 -29.084301 -179.374542 78.787552 -179.548294 -20.758951 1.946831 -12.597623 2.243541 -5.255037 -3.180158 14.282889 -0.826595 6.952506 -1e-06 -12.690603 -1e-06 15.853204 -17.18314 2.74194 1.665664 -1.955922 -2.878297 4.727799 -4.170588 4.993925 11.020524 2e-06 -0.0 12.109051 -3.735716 -2.866785 -0.0 0.0 -1e-06 1.291985 -1.928549 -1.49809 14.800125 0.567468 3.86561 14.242569 -1.341737 -6.660658 19.631964 0.143923 -0.648243 50.035728 -0.444709 -5.667471 0.353029 -1.511151 -0.03194 20.222788 3.684308 2.316634 18.787273 2e-06 1e-06 10.751629 -0.47987 1.397906 0.0 1e-06 0.0 3.273807 0.305946 -0.58011 21.486811 11.830372 2.266136 8.162928 2e-06 0.0 18.399086 -3.798987 -4.940574 1e-06 0.0 -2e-06 6.075381 5.325973 -12.954046 -0.058716 -0.242303 19.595869 -8.752522 4.157816 -6.637072 1.6567 -1.921201 -0.012536 -0.0 -1e-06 2e-06 -7.895875 -24.303394 -7.185794 0.094437 0.127397 17.500969 10.341253 -8.631231 -6.516318 -1.424472 0.977663 -0.179636 0.0 0.0 -1e-06 
1.140146 0.0 0.637897 0.0 4.331771 0.0 0.0 98.920425 0.0 -0.232309 -7.1e-05 -0.008658 -0.811455 0.163982 2.468583 -0.556441 0.693572 -4.442601 -2.566901 -1.553835 12.466933 2.719698 1.684793 15.667171 -0.785442 -1.509997 -3.815664 3.421414 -3.13533 -18.354578 7.7e-05 -2.3e-05 6e-06 0.008338 -0.043313 0.037354 0.625826 -3.771707 -10.558896 -0.614624 3.696226 -10.576249 -15.393527 -8.421281 20.253822 -58.064793 -24.640873 22.004038 0.516002 -20.979141 -0.066306 -6.009265 -0.001597 0.144168 -5.882106 9.861284 0.70259 -10.936872 -0.360576 7.156205 1e-06 8.774826 -1e-06 -16.132084 17.89374 5.671924 -1.844033 2.498503 -2.507277 -10.163601 4.678944 4.621108 -20.976023 -4e-06 -0.0 -21.226286 2.451695 -3.593999 1e-06 -5e-06 -0.0 -1.362682 2.240798 -0.746324 -21.334913 0.584908 3.008321 -13.821213 -3e-06 3e-06 -23.887171 -0.24908 -0.839483 -60.10928 2.408209 -1.635551 -0.294025 1.679687 0.833258 -14.21821 0.093213 1.300579 -34.212048 -0.287567 0.967173 -20.033215 0.964534 1.212843 0.0 -0.0 0.0 -3.440388 0.788233 0.501655 -15.928189 -3.167311 2.999709 -6.338827 -2e-06 1e-06 -18.123446 3.64818 -4.905669 -4e-06 1e-06 1e-06 6.360474 10.800209 18.955393 56.371147 8.817553 -17.512087 -9.152454 84.33268 -9.166079 -14.009135 -0.397419 -11.568594 2.243542 -5.255038 -3.180157 14.282894 -0.826597 6.952504 -2e-06 -12.690609 0.0 14.82799 -18.094923 3.493901 1.665666 -1.955922 -2.8783 4.727798 -4.170589 4.993926 11.020528 2e-06 -2e-06 12.109053 -3.735716 -2.866785 0.0 0.0 -2e-06 1.291986 -1.928549 -1.498088 14.800129 0.567467 3.865608 14.242572 -1.341736 -6.660661 19.631966 0.143927 -0.648246 51.135521 -0.733731 -6.036109 0.353029 -1.511151 -0.03194 20.222792 3.684311 2.316631 18.787273 5e-06 -1e-06 10.751631 -0.47987 1.397906 -1e-06 -0.0 -1e-06 3.273807 0.305947 -0.580112 21.486813 11.830379 2.266133 8.162928 2e-06 -2e-06 18.399084 -3.798986 -4.940576 3e-06 1e-06 -1e-06 5.732358 5.576959 -12.482417 -0.049284 -0.25514 19.535131 -8.492135 4.595955 -6.807271 1.644888 -1.965306 0.011334 -0.0 0.0 2e-06 -8.305315 -23.811712 -7.262143 0.081178 0.093165 17.702106 10.232089 -8.221754 -6.288668 -1.422406 0.960881 -0.215877 0.0 0.0 -1e-06 
